<svg width="262" height="266" xmlns="http://www.w3.org/2000/svg">
 <style type="text/css">.st0{fill:#0A4140;}</style>

 <g>
  <title>background</title>
  <rect fill="none" id="canvas_background" height="268" width="264" y="-1" x="-1"/>
 </g>
 <g>
  <title>Layer 1</title>
  <g stroke="null" id="svg_1">
   <path stroke="null" id="svg_2" d="m0.782041,142.466535c0.55,4.44 1.2,8.87 2.1,13.24c5.07,24.76 16.62,46.07 34.16,64.2c1.35,1.4 3.32,2.01 5.23,1.65c11.98,-2.2 23.94,-4.76 36.04,-5.98c14.56,-1.47 29.11,0.05 43.46,3.04c1.83,0.38 3.58,1.44 2.76,-3.53c-1.47,-8.89 -1.68,-17.94 -1.03,-26.93c0.34,-4.65 -0.13,-5.22 -3.03,-5.64c-11.79,-1.73 -23.79,-2.82 -35.26,-5.84c-32.82,-8.66 -60.02,-26.64 -82.38,-52.08c0,0 -4.63,-3.09 -2.05,17.87z" class="st0"/>
   <path stroke="null" id="svg_3" d="m259.292041,121.866535c0.92,22.29 -2.81,42.49 -11.75,61.63c-12.6,27 -32.34,47.21 -58.64,61.13c-2.56,1.36 -4.44,1.46 -7,-0.35c-12.38,-8.74 -25.87,-15.4 -40.24,-20.18c-2.51,-0.83 -3.77,-2.04 -3.88,-4.6c-0.49,-11.29 -0.99,-22.58 -1.52,-33.87c-0.1,-2.24 0.85,-2.94 3.08,-3.06c30.52,-1.63 58.46,-11.11 83.85,-28.07c12.17,-8.13 23.1,-17.73 32.69,-28.81c0.87,-1.03 1.79,-2.01 3.41,-3.82z" class="st0"/>
   <path stroke="null" id="svg_4" d="m243.432041,67.256535c-0.67,0.73 -1.33,1.6 -2.13,2.31c-18.11,16.19 -36.24,32.35 -54.36,48.53c-14.02,12.53 -28.03,25.09 -42.04,37.64c-0.56,0.5 -1.04,1.14 -1.69,1.45c-0.69,0.34 -1.54,0.36 -2.31,0.52c0.01,-0.72 -0.15,-1.48 0.04,-2.15c6.96,-23.87 18.27,-45.35 35.12,-63.79c15.36,-16.8 33.46,-29.7 54.39,-38.68c2.41,-1.03 3.83,-0.88 5.19,1.43c2.08,3.54 4.38,6.95 6.57,10.42c0.4,0.65 0.7,1.33 1.22,2.32z" class="st0"/>
   <path stroke="null" id="svg_5" d="m118.882041,159.306535c-1.51,-1.23 -2.46,-1.95 -3.35,-2.75c-32.3,-28.89 -64.58,-57.81 -96.94,-86.63c-2.22,-1.98 -2.58,-3.48 -0.86,-5.88c2.17,-3.03 4.15,-6.21 6.04,-9.42c1.32,-2.24 2.65,-2.61 5.15,-1.53c27.96,12.04 50.57,30.57 67.77,55.66c10.09,14.71 17.38,30.73 21.78,48.04c0.14,0.55 0.19,1.13 0.41,2.51z" class="st0"/>
   <path stroke="null" id="svg_6" d="m150.112041,168.026535c5.05,-4.56 10.09,-9.13 15.16,-13.67c27.1,-24.24 54.22,-48.44 81.26,-72.74c2.24,-2.01 3.26,-2.11 4.15,0.96c1.83,6.31 3.95,12.54 5.67,18.89c0.35,1.31 -0.09,3.28 -0.91,4.4c-23.59,32.02 -54.66,52.64 -93.64,61.09c-3.74,0.81 -7.52,1.41 -11.28,2.11c-0.13,-0.35 -0.27,-0.7 -0.41,-1.04z" class="st0"/>
   <path stroke="null" id="svg_7" d="m108.852041,169.346535c-8.63,-2.11 -17.41,-3.74 -25.86,-6.43c-32.32,-10.29 -58.43,-29.37 -78.42,-56.76c-1.05,-1.44 -1.5,-3.99 -1.06,-5.72c1.58,-6.24 3.64,-12.36 5.57,-18.51c0.56,-1.79 1.22,-2.8 3.24,-0.99c32.15,28.88 64.37,57.7 96.56,86.54c0.16,0.14 0.21,0.41 0.31,0.62c-0.12,0.43 -0.23,0.84 -0.34,1.25z" class="st0"/>
   <path stroke="null" id="svg_8" d="m121.792041,126.636535c-4.69,-9.27 -9.98,-18.29 -13.97,-27.85c-12.33,-29.59 -14.69,-60.2 -8.13,-91.55c0.6,-2.86 1.52,-4.66 4.8,-4.96c5.31,-0.5 10.59,-1.4 15.88,-2.14c2.1,-0.3 3.1,0.18 3.1,2.7c-0.08,40.72 -0.06,81.44 -0.07,122.16c0,0.34 -0.13,0.67 -0.19,1.01c-0.48,0.19 -0.95,0.41 -1.42,0.63z" class="st0"/>
   <path stroke="null" id="svg_9" d="m135.922041,63.216535c0,-19.69 0.08,-39.39 -0.08,-59.08c-0.03,-3.27 0.69,-4.59 4.1,-4c5.51,0.96 11.07,1.62 16.55,2.7c1.04,0.21 2.36,1.66 2.62,2.76c4.24,17.98 5.11,36.11 2.74,54.47c-2.95,22.84 -10.69,43.86 -23.01,63.25c-0.4,0.63 -0.75,1.3 -1.24,1.86c-0.27,0.31 -0.77,0.42 -1.16,0.61c-0.17,-0.42 -0.44,-0.83 -0.48,-1.26c-0.08,-0.87 -0.03,-1.74 -0.03,-2.62c-0.01,-19.56 -0.01,-39.12 -0.01,-58.69z" class="st0"/>
   <path stroke="null" id="svg_10" d="m172.202041,77.176535c0.38,-2.92 0.64,-5.85 1.15,-8.75c3.32,-18.81 3.33,-37.6 0,-56.4c-0.07,-0.37 -0.15,-0.73 -0.24,-1.09c-0.63,-2.74 -0.26,-3.88 2.99,-2.59c17.85,7.03 33.52,17.29 46.91,31.03c1.21,1.25 2.52,2.23 -0.18,3.43c-18.62,8.27 -35.14,19.64 -49.69,33.89c-0.24,0.23 -0.66,0.27 -1,0.4l0.06,0.08z" class="st0"/>
   <path stroke="null" id="svg_11" d="m87.662041,77.506535c-5.9,-5.01 -11.08,-9.62 -16.49,-13.95c-10.17,-8.13 -21.28,-14.77 -33.17,-20.07c-2.9,-1.29 -3.69,-2.09 -1.07,-4.72c13.3,-13.33 28.62,-23.51 46.21,-30.27c1,-0.38 2.11,-0.49 3.17,-0.72c-0.04,1.08 0.05,2.18 -0.13,3.23c-3.65,21.25 -3.4,42.42 1.06,63.54c0.14,0.72 0.2,1.46 0.42,2.96z" class="st0"/>
   <path stroke="null" id="svg_12" d="m51.482041,232.086535c13.68,-3.44 27.15,-5.1 40.71,-4.27c10.4,0.64 20.71,2.62 31.07,3.91c3.12,0.39 4.56,1.91 5.39,5.01c1.76,6.6 3.98,13.07 6.14,19.56c0.54,1.62 0.81,2.42 -1.43,2.46c-29.77,0.64 -56.68,-7.75 -80.71,-25.35c-0.28,-0.19 -0.48,-0.52 -1.17,-1.32z" class="st0"/>
   <path stroke="null" id="svg_13" d="m151.022041,257.386535c-0.44,0.12 -0.92,0.01 -1.28,-0.28c-0.74,-0.6 -1.52,-1.13 -1.8,-1.85c-1.92,-4.96 -3.67,-9.99 -5.41,-15.02c-0.01,-0.03 -0.02,-0.07 -0.03,-0.1c-0.32,-1.12 0.86,-2.21 1.91,-1.71c0.01,0 0.01,0.01 0.02,0.01c8.1,4 16.19,8.03 24.25,12.1c1.22,0.62 2.47,1.57 -0.02,2.23c-5.74,1.54 -11.49,3.02 -17.64,4.62z" class="st0"/>
   <path stroke="null" id="svg_14" d="m172.142041,77.096535c-0.09,0.07 -0.18,0.14 -0.28,0.22c0.11,-0.05 0.22,-0.09 0.33,-0.14c0.01,0 -0.05,-0.08 -0.05,-0.08z" class="st0"/>
  </g>
 </g>
</svg>