<svg id="info" width="39" height="39" viewBox="0 0 39 39" fill="none" xmlns="http://www.w3.org/2000/svg">
<path d="M19.5 3C10.3873 3 3 10.3873 3 19.5C3 28.6128 10.3873 36 19.5 36C28.6128 36 36 28.6128 36 19.5C36 10.3873 28.6128 3 19.5 3ZM0 19.5C0 8.73045 8.73045 0 19.5 0C30.2696 0 39 8.73046 39 19.5C39 30.2696 30.2696 39 19.5 39C8.73046 39 0 30.2696 0 19.5ZM19.5 8C20.3284 8 21 8.67157 21 9.5V9.51998C21 10.3484 20.3284 11.02 19.5 11.02C18.6716 11.02 18 10.3484 18 9.51998V9.5C18 8.67157 18.6716 8 19.5 8ZM19.5 14C20.3284 14 21 14.6716 21 15.5V29.5C21 30.3284 20.3284 31 19.5 31C18.6716 31 18 30.3284 18 29.5V15.5C18 14.6716 18.6716 14 19.5 14Z" fill="#767676"/>
</svg>
