<svg width="39" height="34" viewBox="0 0 39 34" fill="none" xmlns="http://www.w3.org/2000/svg">
<path fill-rule="evenodd" clip-rule="evenodd" d="M38.9379 16.577C38.9379 17.2153 38.5542 17.791 37.965 18.0365L2.18923 32.943C1.60162 33.1879 0.924486 33.0564 0.47115 32.6095C0.0178149 32.1626 -0.123286 31.4874 0.113134 30.8964L5.84087 16.577L0.113133 2.25768C-0.123288 1.66662 0.0178143 0.991435 0.471149 0.54453C0.924483 0.0976258 1.60162 -0.0338181 2.18924 0.21102L37.965 15.1176C38.5542 15.3631 38.9379 15.9387 38.9379 16.577ZM4.44674 4.57732L9.01174 15.9898C9.16252 16.3668 9.16252 16.7873 9.01174 17.1642L4.44674 28.5768L33.2461 16.577L4.44674 4.57732Z" fill="#767676"/>
</svg>
