<svg width="39" height="43" viewBox="0 0 39 43" fill="none" xmlns="http://www.w3.org/2000/svg">
<path fill-rule="evenodd" clip-rule="evenodd" d="M19.5 0C20.3284 0 21 0.671573 21 1.5V5.5C21 6.32843 20.3284 7 19.5 7C18.6716 7 18 6.32843 18 5.5V1.5C18 0.671573 18.6716 0 19.5 0ZM4.43934 4.43934C5.02513 3.85355 5.97487 3.85355 6.56066 4.43934L10.5607 8.43934C11.1464 9.02513 11.1464 9.97487 10.5607 10.5607C9.97487 11.1464 9.02513 11.1464 8.43934 10.5607L4.43934 6.56066C3.85355 5.97487 3.85355 5.02513 4.43934 4.43934ZM32.4391 4.43934C33.0249 3.85355 33.9747 3.85355 34.5605 4.43934C35.1462 5.02513 35.1462 5.97487 34.5605 6.56066L30.5605 10.5607C29.9747 11.1464 29.0249 11.1464 28.4391 10.5607C27.8534 9.97487 27.8534 9.02513 28.4391 8.43934L32.4391 4.43934ZM19.5 15C17.0146 15 15 17.0146 15 19.5C15 21.9854 17.0146 24 19.5 24C21.9854 24 24 21.9854 24 19.5C24 17.0146 21.9854 15 19.5 15ZM12 19.5C12 15.3578 15.3578 12 19.5 12C23.6422 12 27 15.3578 27 19.5C27 23.6422 23.6422 27 19.5 27C15.3578 27 12 23.6422 12 19.5ZM0 19.5C0 18.6716 0.671573 18 1.5 18H5.5C6.32843 18 7 18.6716 7 19.5C7 20.3284 6.32843 21 5.5 21H1.5C0.671573 21 0 20.3284 0 19.5ZM32 19.5C32 18.6716 32.6716 18 33.5 18H37.5C38.3284 18 39 18.6716 39 19.5C39 20.3284 38.3284 21 37.5 21H33.5C32.6716 21 32 20.3284 32 19.5ZM10.5608 28.4393C11.1466 29.0251 11.1466 29.9749 10.5608 30.5607L6.56078 34.5607C5.97499 35.1464 5.02525 35.1464 4.43946 34.5607C3.85367 33.9749 3.85367 33.0251 4.43946 32.4393L8.43946 28.4393C9.02525 27.8536 9.97499 27.8536 10.5608 28.4393ZM28.4393 28.4393C29.0251 27.8536 29.9749 27.8536 30.5607 28.4393L34.5607 32.4393C35.1464 33.0251 35.1464 33.9749 34.5607 34.5607C33.9749 35.1464 33.0251 35.1464 32.4393 34.5607L28.4393 30.5607C27.8536 29.9749 27.8536 29.0251 28.4393 28.4393ZM19.5 32C20.3284 32 21 32.6716 21 33.5V37.5C21 38.3284 20.3284 39 19.5 39C18.6716 39 18 38.3284 18 37.5V33.5C18 32.6716 18.6716 32 19.5 32Z" fill="#4DA8A9"/>
</svg>
